Coordinates
version=1
nRows=26
nColumns=22
inDegrees=yes

Units are S.I. units (second, meters, Newtons, ...)
If the header above contains a line with 'inDegrees', this indicates whether rotational values are in degrees (yes) or radians (no).

endheader
time	pelvis_tilt	pelvis_list	pelvis_rotation	pelvis_tx	pelvis_ty	pelvis_tz	hip_flexion_r	hip_adduction_r	hip_rotation_r	knee_angle_r	ankle_angle_r	subtalar_angle_r	hip_flexion_l	hip_adduction_l	hip_rotation_l	knee_angle_l	ankle_angle_l	subtalar_angle_l	lumbar_extension	lumbar_bending	lumbar_rotation
      0.01000000	    -11.99039624	      4.30265707	    -33.38755952	     -0.99420910	      0.88157463	     -0.37570073	     10.16991490	      2.77392285	     -1.38302696	     -0.83848318	      9.26374457	     -1.50188648	     11.31161569	     -4.51445800	     -1.97199758	     -6.02633337	     11.80045052	      2.04255934	      5.72924835	      1.35309477	     10.59045455
      0.02000000	    -11.99281899	      4.30695570	    -33.38876780	     -0.99411185	      0.88156628	     -0.37583598	     10.16763416	      2.76062588	     -1.40162551	     -0.82598499	      9.26639060	     -1.50090641	     11.32326889	     -4.50034117	     -1.96376399	     -6.04053426	     11.79809265	      2.04228556	      5.71479814	      1.34495382	     10.66008842
      0.03000000	    -11.99545023	      4.31664304	    -33.39830775	     -0.99398602	      0.88155143	     -0.37599955	     10.16638983	      2.74022893	     -1.41377760	     -0.80906623	      9.26243810	     -1.49518590	     11.33428250	     -4.47915423	     -1.96292385	     -6.05181838	     11.80367530	      2.03898510	      5.70180598	      1.33384108	     10.75292640
      0.04000000	    -11.98634972	      4.34867187	    -33.44533699	     -0.99384499	      0.88153385	     -0.37615696	     10.17106394	      2.69335514	     -1.35997177	     -0.79712283	      9.24327460	     -1.46396433	     11.33267156	     -4.43335645	     -2.02692632	     -6.04928164	     11.81841343	      2.01783316	      5.69290224	      1.29977885	     10.89717011
      0.05000000	    -11.98301499	      4.36794800	    -33.48575016	     -0.99367243	      0.88151693	     -0.37634856	     10.16595967	      2.65916143	     -1.32940311	     -0.77203432	      9.23337652	     -1.43213877	     11.33086982	     -4.39875582	     -2.06593424	     -6.04950139	     11.82268864	      1.99501131	      5.68060824	      1.28170941	     11.04105804
      0.06000000	    -11.97719455	      4.38797687	    -33.52743636	     -0.99347976	      0.88150088	     -0.37656333	     10.15680228	      2.62033263	     -1.29401199	     -0.74254103	      9.21940886	     -1.39865140	     11.32592995	     -4.36072127	     -2.11176646	     -6.04774107	     11.83057792	      1.96909189	      5.66544106	      1.26088537	     11.19140297
      0.07000000	    -11.97042180	      4.40615528	    -33.57147310	     -0.99324196	      0.88148418	     -0.37679887	     10.14324815	      2.58014790	     -1.26407989	     -0.71175294	      9.20023898	     -1.36975903	     11.31582260	     -4.32069488	     -2.15495979	     -6.04586679	     11.84508319	      1.94458533	      5.65283953	      1.24545015	     11.34019668
      0.08000000	    -11.96112652	      4.42104000	    -33.61310060	     -0.99298216	      0.88147369	     -0.37704910	     10.12172471	      2.54044961	     -1.23181953	     -0.67462457	      9.18118682	     -1.34163005	     11.30225060	     -4.28037581	     -2.20250912	     -6.04581815	     11.86107690	      1.91765241	      5.63585119	      1.23053651	     11.49008377
      0.09000000	    -11.95208511	      4.42940200	    -33.64539150	     -0.99268436	      0.88146514	     -0.37732668	     10.09369988	      2.50297316	     -1.21099416	     -0.63582383	      9.16314707	     -1.31821315	     11.28739387	     -4.24206535	     -2.23939754	     -6.04909900	     11.87935275	      1.89159363	      5.61748128	      1.22182354	     11.62595551
      0.10000000	    -11.94386049	      4.43369003	    -33.66908144	     -0.99235168	      0.88145811	     -0.37762629	     10.06211992	      2.46623857	     -1.19876379	     -0.59655515	      9.14491112	     -1.29886314	     11.27270990	     -4.20488503	     -2.26759054	     -6.05569678	     11.90129495	      1.86629385	      5.59894292	      1.21743120	     11.74911676
      0.11000000	    -11.93651652	      4.43372105	    -33.68516503	     -0.99198810	      0.88145448	     -0.37794886	     10.02784290	      2.43086345	     -1.19404546	     -0.55753937	      9.12775253	     -1.28111598	     11.25839574	     -4.16864824	     -2.28743451	     -6.06486287	     11.92567364	      1.84001146	      5.58006123	      1.21732148	     11.86140206
      0.12000000	    -11.94457955	      4.42795273	    -33.68417902	     -0.99159719	      0.88143505	     -0.37831406	     10.00835699	      2.40532936	     -1.21574416	     -0.52986911	      9.12666876	     -1.27630759	     11.26071449	     -4.14173568	     -2.27791573	     -6.08039113	     11.93495058	      1.83187786	      5.57293030	      1.23246300	     11.94894803
      0.13000000	    -11.94992903	      4.42303105	    -33.68154812	     -0.99117727	      0.88141646	     -0.37869965	      9.98779207	      2.37426594	     -1.23307857	     -0.50552670	      9.11648441	     -1.26905067	     11.25813688	     -4.10923937	     -2.27317015	     -6.09237340	     11.95829319	      1.82031006	      5.56493308	      1.24505366	     12.03271055
      0.14000000	    -11.95428941	      4.41619567	    -33.67751647	     -0.99074322	      0.88140023	     -0.37910931	      9.96699755	      2.34173210	     -1.24754696	     -0.48384086	      9.10498067	     -1.25865044	     11.25309587	     -4.07541799	     -2.26902091	     -6.10239535	     11.98491505	      1.80464328	      5.55489224	      1.25815725	     12.11148864
      0.15000000	    -11.95826441	      4.40849385	    -33.67248605	     -0.99029817	      0.88138455	     -0.37954173	      9.94771154	      2.30770914	     -1.26091295	     -0.46663175	      9.09393102	     -1.24410514	     11.24536104	     -4.04002536	     -2.26378177	     -6.10845214	     12.01235487	      1.78367678	      5.54298177	      1.27125387	     12.18529314
      0.16000000	    -11.96242916	      4.40099981	    -33.66527559	     -0.98984600	      0.88136680	     -0.38000054	      9.93267550	      2.27158349	     -1.27411122	     -0.45573580	      9.08572723	     -1.22570632	     11.23557712	     -4.00212696	     -2.25717853	     -6.10795033	     12.03741315	      1.75799915	      5.53080633	      1.28308600	     12.25334908
      0.17000000	    -11.96853713	      4.39491238	    -33.65423935	     -0.98938101	      0.88134378	     -0.38047872	      9.92345133	      2.23353577	     -1.28836613	     -0.45092360	      9.08164445	     -1.20631455	     11.22465148	     -3.96158951	     -2.24998958	     -6.09959981	     12.05859679	      1.73162724	      5.52064137	      1.29219107	     12.31632898
      0.18000000	    -11.94777532	      4.40163292	    -33.65650486	     -0.98889609	      0.88134412	     -0.38096996	      9.90710109	      2.16509509	     -1.28461451	     -0.46494954	      9.09814452	     -1.11552028	     11.17512247	     -3.89164855	     -2.25342073	     -6.05247078	     12.06844369	      1.61331091	      5.49108233	      1.27428898	     12.37243491
      0.19000000	    -11.96645148	      4.39102295	    -33.64099745	     -0.98838663	      0.88130229	     -0.38147528	      9.90282606	      2.13574161	     -1.30816516	     -0.45736062	      9.09924609	     -1.10539154	     11.16944940	     -3.85898909	     -2.24627949	     -6.04113661	     12.07713191	      1.60050134	      5.49387159	      1.29472362	     12.42630666
      0.20000000	    -11.97995180	      4.38939351	    -33.62618912	     -0.98785612	      0.88125508	     -0.38199504	      9.90601477	      2.09291039	     -1.33252478	     -0.46346427	      9.10127817	     -1.08892360	     11.15024580	     -3.81327627	     -2.23904778	     -6.00329436	     12.09980892	      1.58132288	      5.49687358	      1.30193223	     12.47215646
      0.21000000	    -11.99044208	      4.38916701	    -33.61171213	     -0.98729504	      0.88120769	     -0.38252013	      9.90956048	      2.04565802	     -1.35519779	     -0.47722910	      9.11643808	     -1.06525285	     11.12203834	     -3.76308575	     -2.23084862	     -5.95544780	     12.11542175	      1.55538802	      5.49918995	      1.30556137	     12.51104331
      0.22000000	    -11.99879352	      4.38800348	    -33.59661323	     -0.98670248	      0.88115738	     -0.38306046	      9.91250627	      1.99546587	     -1.37891135	     -0.49929667	      9.14192788	     -1.03147518	     11.08693869	     -3.71034809	     -2.21949090	     -5.90022363	     12.12624504	      1.52082776	      5.49955498	      1.30852781	     12.54524696
      0.23000000	    -12.02086591	      4.36977760	    -33.57629338	     -0.98611775	      0.88110487	     -0.38362770	      9.91072541	      1.96621219	     -1.37607805	     -0.50621735	      9.14311208	     -1.02921811	     11.08114587	     -3.68214197	     -2.22440557	     -5.89243756	     12.12903814	      1.51849513	      5.49719858	      1.33607608	     12.55795306
      0.24000000	    -12.01281694	      4.37863438	    -33.56601393	     -0.98547227	      0.88105685	     -0.38418575	      9.92400147	      1.89348785	     -1.40953813	     -0.56894527	      9.21133274	     -0.94764817	     11.01775496	     -3.60940509	     -2.18854304	     -5.80685821	     12.14034048	      1.44865106	      5.48935241	      1.31546897	     12.60046554
      0.25000000	    -12.03496483	      4.37160431	    -33.55612314	     -0.98480637	      0.88098422	     -0.38474305	      9.92464064	      1.85334005	     -1.42977558	     -0.57304856	      9.21664873	     -0.92581697	     10.99767890	     -3.57044749	     -2.19640384	     -5.77231035	     12.17181306	      1.43107898	      5.50381362	      1.33141253	     12.63003603
      0.26000000	    -12.04406323	      4.36953856	    -33.55195840	     -0.98413640	      0.88092197	     -0.38532188	      9.93335400	      1.79867376	     -1.43603242	     -0.60873444	      9.23951093	     -0.89022103	     10.96699539	     -3.51856966	     -2.18447348	     -5.73700819	     12.21195891	      1.40583504	      5.50608373	      1.33352574	     12.66469881
